<?xml version="1.0" standalone="no"?>
<!DOCTYPE svg PUBLIC "-//W3C//DTD SVG 20010904//EN"
 "http://www.w3.org/TR/2001/REC-SVG-20010904/DTD/svg10.dtd">
<svg version="1.0" xmlns="http://www.w3.org/2000/svg"
 width="1779.000000pt" height="468.000000pt" viewBox="0 0 1779.000000 468.000000"
 preserveAspectRatio="xMidYMid meet">

<g transform="translate(0.000000,468.000000) scale(0.100000,-0.100000)"
fill="#000000" stroke="none">
<path d="M12089 3723 c-55 -114 -110 -230 -122 -257 l-21 -49 51 -48 c82 -78
142 -78 225 -1 123 115 202 352 153 455 -15 32 -79 79 -125 92 -14 3 -33 9
-43 12 -14 4 -35 -32 -118 -204z"/>
<path d="M10035 3593 c-11 -2 -34 -9 -52 -14 -33 -11 3 41 -791 -1128 l-282
-415 0 -558 0 -558 -60 0 c-33 0 -60 -4 -60 -10 0 -19 69 -77 100 -83 70 -14
127 19 164 96 33 66 45 162 46 343 0 299 29 444 125 639 72 147 122 225 530
829 397 588 435 653 435 739 -1 78 -78 138 -155 120z"/>
<path d="M16880 2246 l0 -1326 -237 0 -237 0 30 -31 c44 -48 141 -108 202
-125 30 -9 87 -16 126 -16 158 1 249 71 291 227 15 54 17 169 15 1175 -1 630
-5 1148 -11 1190 -16 128 -68 207 -146 225 l-33 7 0 -1326z"/>
<path d="M2728 2980 c160 -316 453 -897 652 -1290 330 -652 395 -772 323 -592
-37 95 -1148 2306 -1188 2366 -101 153 -50 37 213 -484z"/>
<path d="M4720 2480 l0 -1040 105 0 105 0 -8 33 c-4 17 -7 347 -7 732 0 639 2
706 18 765 50 183 151 287 327 337 56 15 102 18 320 18 281 -1 372 -12 530
-65 l85 -28 -40 35 c-153 131 -346 218 -540 242 -52 6 -262 11 -492 11 l-403
0 0 -1040z"/>
<path d="M11211 3330 c-39 -6 -55 -18 -135 -101 -144 -148 -227 -290 -278
-476 -18 -64 -21 -107 -22 -243 -1 -143 2 -176 22 -250 42 -154 134 -325 235
-435 l45 -50 -28 82 c-48 136 -63 239 -58 398 8 239 62 390 223 630 139 207
159 245 159 309 0 62 -25 110 -70 131 -18 8 -36 14 -41 14 -4 -1 -28 -5 -52
-9z"/>
<path d="M14500 2112 l0 -1192 -50 0 -50 0 16 -26 c22 -32 64 -54 106 -54 84
0 141 84 158 235 5 50 10 339 10 656 0 320 5 611 10 668 19 181 69 293 148
328 20 10 39 18 41 20 4 3 -351 515 -380 548 -5 5 -9 -520 -9 -1183z"/>
<path d="M1947 2959 c-99 -205 -658 -1341 -711 -1446 l-36 -73 183 0 182 0 13
56 c7 30 29 93 48 139 60 142 359 739 414 823 59 92 123 155 186 183 l44 20
-116 232 c-64 128 -118 234 -120 236 -1 2 -41 -75 -87 -170z"/>
<path d="M13305 3065 c63 -178 86 -302 92 -495 8 -265 -24 -446 -119 -668
-187 -434 -522 -742 -974 -891 -174 -58 -286 -75 -494 -75 -184 0 -326 19
-469 64 -36 10 -66 18 -68 16 -12 -12 211 -129 327 -171 152 -55 271 -76 460
-82 148 -4 193 -2 295 15 299 52 563 183 774 387 184 177 301 363 381 604 130
394 83 837 -127 1196 -46 78 -90 135 -78 100z"/>
<path d="M6997 2963 c48 -151 65 -259 70 -439 8 -268 -28 -445 -137 -671 -222
-462 -621 -782 -1129 -906 -80 -19 -123 -21 -644 -26 l-559 -6 34 -50 c42 -62
104 -101 193 -120 137 -29 974 -15 1172 20 610 105 1100 568 1224 1155 32 150
32 390 1 548 -26 131 -68 255 -124 367 -37 73 -116 205 -123 205 -2 0 8 -35
22 -77z"/>
<path d="M16275 1745 c43 -59 45 -61 45 -39 0 10 -17 32 -37 49 l-37 29 29
-39z"/>
<path d="M915 888 c16 -74 66 -125 149 -151 61 -18 1397 -17 1481 2 105 23
155 61 155 117 0 70 82 64 -902 64 l-890 0 7 -32z"/>
<path d="M3419 902 c16 -30 112 -90 159 -101 28 -6 56 -6 79 1 37 10 83 51 83
74 0 7 3 19 6 28 5 14 -13 16 -165 16 -164 0 -171 -1 -162 -18z"/>
</g>
</svg>
